<?xml version="1.0" encoding="UTF-8"?>
<svg version="1.1" xmlns="http://www.w3.org/2000/svg" width="442" height="134">
<path d="M0 0 C145.86 0 291.72 0 442 0 C442 44.22 442 88.44 442 134 C296.14 134 150.28 134 0 134 C0 89.78 0 45.56 0 0 Z " fill="#242622" transform="translate(0,0)"/>
<path d="M0 0 C1.03026944 6.69675136 1.10152799 13.2314676 1 20 C-2.87316691 16.36157048 -6.06498836 12.43302936 -9.25390625 8.18359375 C-11.04955359 5.9380303 -12.85715683 3.91864227 -15 2 C-17.58899883 1.51637807 -17.58899883 1.51637807 -20 3 C-23.80012742 8.58618731 -25.07837776 14.19457742 -25.31640625 20.859375 C-25.35830078 21.97441406 -25.40019531 23.08945312 -25.44335938 24.23828125 C-25.48267578 25.39714844 -25.52199219 26.55601563 -25.5625 27.75 C-25.62727539 29.51150391 -25.62727539 29.51150391 -25.69335938 31.30859375 C-25.79934717 34.20559355 -25.90016916 37.1027815 -26 40 C-20.72 40 -15.44 40 -10 40 C-10 41.32 -10 42.64 -10 44 C-15.28 44 -20.56 44 -26 44 C-25.9308707 51.65005446 -25.84277947 59.29957554 -25.73754883 66.94921875 C-25.70441196 69.54844214 -25.67634551 72.14773553 -25.65356445 74.74707031 C-25.61981202 78.49574458 -25.56748414 82.24378371 -25.51171875 85.9921875 C-25.50532883 87.14363251 -25.4989389 88.29507751 -25.49235535 89.48141479 C-25.38004398 95.72496659 -24.72160799 101.07309167 -22.63825989 106.97683716 C-22 109 -22 109 -22 112 C-32.89 112 -43.78 112 -55 112 C-54.01 108.7 -53.02 105.4 -52 102 C-51.25190422 98.25952112 -50.85713171 95.30545528 -50.79467773 91.56713867 C-50.77473251 90.50641647 -50.75478729 89.44569427 -50.73423767 88.35282898 C-50.71752518 87.2193251 -50.70081268 86.08582123 -50.68359375 84.91796875 C-50.66281265 83.74865311 -50.64203156 82.57933746 -50.62062073 81.37458801 C-50.55532586 77.64561747 -50.49633341 73.91657753 -50.4375 70.1875 C-50.39429571 67.65689391 -50.35068081 65.1262948 -50.30664062 62.59570312 C-50.19966496 56.39720624 -50.09834091 50.19863965 -50 44 C-57.26 44 -64.52 44 -72 44 C-71.9307868 51.34692384 -71.8426565 58.69329676 -71.73754883 66.03979492 C-71.70444503 68.53517508 -71.6763686 71.03062751 -71.65356445 73.52612305 C-71.61975036 77.12840356 -71.56742068 80.73003047 -71.51171875 84.33203125 C-71.50532883 85.43456741 -71.4989389 86.53710358 -71.49235535 87.67304993 C-71.35772428 94.88452823 -70.14929854 101.13221821 -68 108 C-67.67 109.32 -67.34 110.64 -67 112 C-77.89 112 -88.78 112 -100 112 C-98 103 -98 103 -97 99 C-96.8871659 97.16788499 -96.82414436 95.33242005 -96.79467773 93.49707031 C-96.77473251 92.39623108 -96.75478729 91.29539185 -96.73423767 90.16119385 C-96.70916893 88.38757477 -96.70916893 88.38757477 -96.68359375 86.578125 C-96.6524221 84.75544098 -96.6524221 84.75544098 -96.62062073 82.89593506 C-96.55523172 79.01401427 -96.49628949 75.1320258 -96.4375 71.25 C-96.39430468 68.61848258 -96.35069006 65.98697201 -96.30664062 63.35546875 C-96.19956117 56.9037174 -96.09777486 50.45189871 -96 44 C-98.97 44 -101.94 44 -105 44 C-105 42.68 -105 41.36 -105 40 C-102.03 40 -99.06 40 -96 40 C-95.96261719 39.23816406 -95.92523438 38.47632813 -95.88671875 37.69140625 C-95.16233464 26.31431468 -92.71546736 16.26503967 -84.078125 8.20703125 C-74.92175111 1.02034244 -67.38007648 0.34394238 -56 1 C-54.32552691 1.2915969 -52.65365635 1.60717742 -51 2 C-50.03794912 8.37358711 -49.89344422 14.55929529 -50 21 C-54.22342782 17.16052016 -57.17728501 12.91259892 -60.25390625 8.109375 C-62.16055529 5.80604059 -63.08269352 5.33194735 -66 5 C-71.23876878 12.38190146 -71.33177974 21.31383587 -71.625 30.0625 C-71.810625 34.9815625 -71.810625 34.9815625 -72 40 C-64.74 40 -57.48 40 -50 40 C-50.061875 38.02 -50.12375 36.04 -50.1875 34 C-50.16883808 28.24590919 -49.65459453 24.07615214 -47 19 C-46.43152344 17.79923828 -46.43152344 17.79923828 -45.8515625 16.57421875 C-42.04832335 9.33047713 -36.94933113 5.18163215 -30 1 C-29.36449219 0.61714844 -28.72898437 0.23429688 -28.07421875 -0.16015625 C-20.11463584 -3.95463591 -7.97794204 -3.11910195 0 0 Z " fill="#F9F2E4" transform="translate(267,10)"/>
<path d="M0 0 C9.26469031 6.9141346 15.73895314 14.82479199 19 26 C20.13070598 34.76538738 19.22656895 42.23153994 15 50 C14.57589844 50.78117187 14.15179688 51.56234375 13.71484375 52.3671875 C7.92618096 61.94508638 -1.19402192 68.21254883 -12 71 C-24.43013439 72.7778969 -34.88663599 70.37301396 -45.3125 63.25 C-53.91332916 56.22271131 -59.24765638 47.38382607 -60.37890625 36.28125 C-60.61680622 28.60705751 -60.03627811 22.58842647 -56 16 C-55.360625 14.9275 -54.72125 13.855 -54.0625 12.75 C-41.03830721 -4.61559038 -19.572534 -10.85135368 0 0 Z " fill="#F8F2E4" transform="translate(139,53)"/>
<path d="M0 0 C6.0803925 5.23196564 10.1210587 12.43907135 11.6875 20.3125 C11.6875 22.2925 11.6875 24.2725 11.6875 26.3125 C-2.5025 26.3125 -16.6925 26.3125 -31.3125 26.3125 C-29.57074305 39.905124 -29.57074305 39.905124 -21.52734375 49.75 C-15.32675422 53.41687841 -8.43873425 53.17994697 -1.5625 51.734375 C2.90936202 50.48331836 6.85126862 48.99786197 10.6875 46.3125 C10.38057336 53.67873926 7.14739845 58.08519976 1.828125 63.046875 C-6.90590853 70.10397409 -16.3776079 71.40123589 -27.34960938 70.57128906 C-35.18709255 69.53798904 -43.27613289 65.46949099 -48.3125 59.3125 C-55.57312732 48.02567796 -57.93769729 37.56519383 -56.3125 24.3125 C-54.28319883 15.4152827 -49.39799862 7.07537221 -42.3125 1.3125 C-27.88135189 -7.65000251 -14.92439064 -7.60299146 0 0 Z " fill="#F8F1E3" transform="translate(390.3125,53.6875)"/>
<path d="M0 0 C8.67057313 -0.42395547 16.35470931 1.89934827 23.1015625 7.44140625 C27.51379835 11.64526135 30.79707704 16.40294988 32.7265625 22.19140625 C32.7265625 25.49140625 32.7265625 28.79140625 32.7265625 32.19140625 C18.8665625 32.19140625 5.0065625 32.19140625 -9.2734375 32.19140625 C-7.51126385 46.12112366 -7.51126385 46.12112366 0.8515625 55.62890625 C6.94375269 58.93987918 12.92904168 58.78215256 19.7265625 58.19140625 C22.96479745 57.20828744 25.78520008 55.84630009 28.7265625 54.19140625 C30.05757299 53.520114 31.39026629 52.85211395 32.7265625 52.19140625 C32.37564522 59.03429326 28.67299596 64.3316326 23.8671875 68.99609375 C14.46452487 76.5558345 4.35896719 77.06565796 -7.2734375 76.19140625 C-10.29143124 75.62375853 -12.62227945 74.72203127 -15.2734375 73.19140625 C-16.01980469 72.77761719 -16.76617187 72.36382812 -17.53515625 71.9375 C-25.64471669 67.01814681 -30.59320866 60.51663443 -33.578125 51.51171875 C-36.06317359 39.64491366 -35.28650338 27.44057229 -28.91796875 16.9609375 C-23.2481736 8.85905863 -15.67038198 2.61294947 -5.8984375 0.44140625 C-3.9314661 0.30575305 -1.96469261 0.16541226 0 0 Z " fill="#F8F1E4" transform="translate(293.2734375,47.80859375)"/>
<path d="M0 0 C1.23520386 0.00870117 1.23520386 0.00870117 2.49536133 0.01757812 C8.85264995 0.1524808 14.64882012 1.11882422 20.625 3.375 C21.79902193 10.71263707 21.71877123 17.95665418 21.625 25.375 C17.87237447 24.12412482 17.2750594 22.75337936 15.125 19.5 C12.75027507 15.89764118 12.75027507 15.89764118 9.90625 12.6796875 C8.625 11.375 8.625 11.375 8.625 9.375 C8.026875 9.08625 7.42875 8.7975 6.8125 8.5 C4.625 7.375 4.625 7.375 1.625 5.375 C-4.76291125 4.81575617 -4.76291125 4.81575617 -10.375 7.375 C-11.52520525 9.62243756 -11.52520525 9.62243756 -12.375 12.375 C-12.88289063 13.39207031 -13.39078125 14.40914062 -13.9140625 15.45703125 C-15.83221697 19.90554193 -15.78192094 24.09352361 -15.6875 28.875 C-15.69072266 29.69097656 -15.69394531 30.50695312 -15.69726562 31.34765625 C-15.62676455 39.3335049 -13.76841951 45.72210759 -9.375 52.375 C-3.80842834 57.65610644 1.30132339 58.76773994 8.76953125 58.63671875 C14.53505425 58.1082782 19.5215937 56.00091376 24.625 53.375 C22.58705281 61.759697 18.61192862 68.18027555 11.125 72.75 C2.15960346 76.91250554 -7.61183341 77.97059963 -17.2890625 75.6875 C-27.47104792 71.90471904 -33.56188008 66.04722507 -38.375 56.375 C-38.93960938 55.31732422 -38.93960938 55.31732422 -39.515625 54.23828125 C-40.86589519 49.73942649 -40.74377167 45.29624724 -40.75 40.625 C-40.78673828 39.19800781 -40.78673828 39.19800781 -40.82421875 37.7421875 C-40.86658115 27.43400409 -36.94806446 19.60135938 -30.1875 11.875 C-21.13695724 3.8300731 -12.16003792 -0.20920495 0 0 Z " fill="#F9F2E4" transform="translate(47.375,47.625)"/>
<path d="M0 0 C6.08479515 3.51045874 7.99952617 8.43434231 10 15 C13.39544581 29.59220346 13.06647971 49.70683102 6 63.1875 C3.94773548 66.07349698 2.48828744 67.73522976 -1.0859375 68.37109375 C-5.1477069 68.48892665 -7.35911465 68.4272569 -10.8125 66.125 C-17.34885007 56.78735705 -18.18131674 47.55566524 -18.1875 36.5 C-18.19974609 35.37851563 -18.21199219 34.25703125 -18.22460938 33.1015625 C-18.24361641 22.12816827 -17.8559951 11.0735128 -11 2 C-7.28376354 -0.47749097 -4.30622418 -0.75992191 0 0 Z " fill="#252723" transform="translate(122,52)"/>
<path d="M0 0 C3.23857278 1.30921027 4.60256422 2.52033613 6.8125 5.1875 C8.36311739 8.86001486 8.68645283 12.11010061 8 16 C5.77708378 20.36350222 3.54977416 23.09544338 -1 25 C-5.26044487 25.54223844 -7.42096006 25.30065535 -11.25 23.3125 C-15.46968485 19.76412865 -16.82339482 17.58944665 -17.4375 12.0625 C-17.27681098 7.81227539 -15.72994473 5.27593367 -13 2 C-8.74178609 -0.83880927 -4.99661255 -0.51165313 0 0 Z " fill="#F7F0E3" transform="translate(428,98)"/>
<path d="M0 0 C3.89312965 1.57381837 4.97033367 3.54459939 6.9375 7.1875 C8.14443821 10.80831463 8.04532079 14.1125719 8 17.875 C7.979375 20.288125 7.95875 22.70125 7.9375 25.1875 C1.3375 25.1875 -5.2625 25.1875 -12.0625 25.1875 C-12.0625 16.58855195 -11.5091384 8.71999133 -5.6875 1.9375 C-3.0625 0.1875 -3.0625 0.1875 0 0 Z " fill="#292B27" transform="translate(295.0625,50.8125)"/>
<path d="M0 0 C3.5625 0.5 3.5625 0.5 5.9375 2.8125 C8.74063046 7.44844653 8.68415706 11.43717986 8.625 16.6875 C8.604375 19.265625 8.58375 21.84375 8.5625 24.5 C2.2925 24.5 -3.9775 24.5 -10.4375 24.5 C-10.83546502 15.84426077 -10.74741388 8.69794559 -5.015625 1.78515625 C-3.4375 0.5 -3.4375 0.5 0 0 Z " fill="#262824" transform="translate(369.4375,51.5)"/>
</svg>
